<?xml version="1.0" encoding="UTF-8" standalone="no"?>
<!DOCTYPE svg PUBLIC "-//W3C//DTD SVG 1.1//EN" "http://www.w3.org/Graphics/SVG/1.1/DTD/svg11.dtd">
<!-- Created with Vectornator (http://vectornator.io/) -->
<svg height="100%" stroke-miterlimit="10" style="fill-rule:nonzero;clip-rule:evenodd;stroke-linecap:round;stroke-linejoin:round;" version="1.1" viewBox="0 0 512 512" width="100%" xml:space="preserve" xmlns="http://www.w3.org/2000/svg" xmlns:xlink="http://www.w3.org/1999/xlink">
<defs/>
<g id="Layer-1">
<path d="M42.9236 212.183C69.9921 104.963 178.854 39.9876 286.074 67.0561C393.293 94.1246 458.269 202.987 431.2 310.206C404.132 417.426 295.27 482.401 188.05 455.333C80.8305 428.264 15.8551 319.402 42.9236 212.183Z" fill="#ffe2a0" fill-rule="nonzero" opacity="1" stroke="#e5ae00" stroke-linecap="butt" stroke-linejoin="round" stroke-width="12.3427"/>
<g fill="#000000" opacity="1" stroke="none">
<path d="M122.685 392.59L128.12 397.145L131.04 393.661L126.496 389.854C126.075 389.501 125.84 389.143 125.791 388.78C125.742 388.417 125.849 388.078 126.114 387.762C126.379 387.446 126.694 387.284 127.061 387.274C127.427 387.265 127.818 387.434 128.233 387.782L132.776 391.59L136.537 387.102C137.014 386.532 137.497 386.217 137.985 386.157C138.473 386.097 138.918 386.235 139.321 386.573C139.73 386.915 139.946 387.334 139.969 387.828C139.993 388.322 139.768 388.851 139.296 389.415L130.513 399.895C130.181 400.291 129.851 400.565 129.523 400.717C129.195 400.87 128.858 400.898 128.511 400.802C128.164 400.707 127.795 400.495 127.405 400.168L120.902 394.718C120.462 394.349 120.217 393.978 120.167 393.604C120.116 393.23 120.224 392.885 120.488 392.569C120.758 392.247 121.082 392.078 121.459 392.062C121.836 392.045 122.245 392.222 122.685 392.59Z"/>
<path d="M121.278 373.048L120.294 375.222L125.387 380.347L127.601 379.342C128.465 378.951 129.09 378.728 129.476 378.675C129.862 378.622 130.243 378.785 130.619 379.163C130.938 379.484 131.102 379.885 131.112 380.365C131.122 380.845 130.978 381.233 130.68 381.529C130.508 381.7 130.302 381.848 130.062 381.973C129.821 382.098 129.472 382.257 129.014 382.449L117.624 387.359C117.298 387.501 116.906 387.671 116.448 387.87C115.99 388.068 115.58 388.203 115.217 388.273C114.854 388.343 114.487 388.327 114.116 388.223C113.745 388.119 113.385 387.892 113.038 387.542C112.685 387.187 112.457 386.823 112.356 386.451C112.254 386.079 112.236 385.715 112.303 385.358C112.37 385.001 112.475 384.652 112.619 384.309C112.763 383.967 112.962 383.516 113.215 382.957L118.077 371.58C118.44 370.707 118.762 370.131 119.042 369.852C119.335 369.561 119.724 369.417 120.21 369.419C120.695 369.42 121.109 369.593 121.451 369.937C121.65 370.137 121.785 370.345 121.856 370.559C121.927 370.774 121.949 370.991 121.922 371.211C121.896 371.431 121.811 371.724 121.667 372.089C121.523 372.454 121.393 372.774 121.278 373.048ZM122.803 381.581L119.06 377.815L115.746 384.885L122.803 381.581Z"/>
<path d="M106.012 360.131C106.847 359.454 107.772 359.062 108.786 358.953C109.8 358.844 110.831 359.051 111.879 359.575C112.928 360.099 113.912 360.929 114.833 362.066C115.936 363.429 116.589 364.761 116.791 366.064C116.93 366.992 116.848 367.903 116.548 368.796C116.247 369.69 115.805 370.373 115.22 370.846C114.881 371.121 114.496 371.238 114.063 371.198C113.631 371.159 113.267 370.957 112.972 370.592C112.733 370.297 112.625 369.971 112.648 369.615C112.671 369.258 112.809 368.857 113.063 368.413C113.36 367.881 113.574 367.393 113.703 366.95C113.833 366.507 113.844 366.023 113.735 365.497C113.627 364.971 113.328 364.407 112.84 363.804C112.169 362.975 111.43 362.458 110.624 362.253C109.818 362.048 109.127 362.179 108.549 362.647C108.09 363.018 107.832 363.459 107.772 363.97C107.713 364.481 107.787 365.019 107.995 365.584C108.203 366.148 108.522 366.87 108.952 367.748C109.524 368.929 109.925 369.979 110.156 370.9C110.386 371.821 110.392 372.695 110.173 373.522C109.954 374.349 109.446 375.086 108.648 375.732C107.888 376.347 107.045 376.687 106.119 376.75C105.193 376.814 104.254 376.582 103.301 376.054C102.348 375.526 101.442 374.731 100.582 373.669C99.8957 372.822 99.4071 372.003 99.1165 371.214C98.8258 370.425 98.6895 369.686 98.7075 368.995C98.7254 368.305 98.8496 367.71 99.0801 367.211C99.3106 366.713 99.608 366.316 99.9722 366.021C100.305 365.751 100.7 365.626 101.158 365.646C101.616 365.665 101.987 365.85 102.272 366.202C102.531 366.522 102.648 366.831 102.623 367.127C102.597 367.423 102.481 367.816 102.275 368.305C101.957 368.979 101.795 369.609 101.787 370.198C101.78 370.786 102.092 371.469 102.723 372.248C103.307 372.97 103.938 373.424 104.613 373.61C105.289 373.796 105.85 373.708 106.296 373.347C106.572 373.124 106.75 372.855 106.829 372.541C106.908 372.228 106.912 371.881 106.843 371.5C106.774 371.119 106.671 370.761 106.534 370.425C106.397 370.089 106.155 369.546 105.809 368.797C105.36 367.871 104.99 367.003 104.699 366.194C104.407 365.385 104.239 364.632 104.195 363.935C104.15 363.238 104.268 362.571 104.547 361.933C104.827 361.296 105.315 360.695 106.012 360.131Z"/>
<path d="M89.9812 353.241L92.1526 356.514L102.91 349.376C103.53 348.965 104.081 348.799 104.564 348.876C105.046 348.953 105.433 349.211 105.724 349.648C106.018 350.093 106.107 350.555 105.989 351.036C105.872 351.516 105.507 351.96 104.894 352.366L94.1363 359.504L96.3077 362.777C96.6472 363.288 96.7869 363.744 96.7266 364.142C96.6663 364.541 96.451 364.864 96.0806 365.109C95.6968 365.364 95.3078 365.435 94.9135 365.324C94.5193 365.212 94.1591 364.91 93.8329 364.418L87.5064 354.883C87.1624 354.365 87.0211 353.903 87.0825 353.499C87.1439 353.094 87.3598 352.769 87.7302 352.523C88.1005 352.278 88.4834 352.208 88.8788 352.314C89.2741 352.42 89.6416 352.729 89.9812 353.241Z"/>
<path d="M79.1026 332.791L80.8324 336.317L92.4228 330.631C93.0903 330.303 93.6584 330.209 94.1272 330.348C94.596 330.487 94.9461 330.793 95.1775 331.264C95.4124 331.743 95.4404 332.213 95.2617 332.674C95.0829 333.136 94.6634 333.528 94.0031 333.852L82.4127 339.538L84.1425 343.064C84.413 343.616 84.4926 344.085 84.3813 344.473C84.2699 344.861 84.0147 345.152 83.6157 345.348C83.2021 345.551 82.8071 345.571 82.4306 345.41C82.0542 345.248 81.736 344.902 81.4762 344.372L76.4363 334.099C76.1622 333.54 76.0818 333.064 76.195 332.671C76.3082 332.278 76.5643 331.984 76.9633 331.788C77.3624 331.592 77.7511 331.572 78.1294 331.729C78.5077 331.885 78.8321 332.239 79.1026 332.791Z"/>
<path d="M89.2662 323.602L76.3067 328.901C75.6335 329.176 75.0659 329.229 74.6039 329.06C74.1419 328.891 73.8115 328.564 73.6127 328.078C73.4077 327.576 73.4082 327.102 73.6142 326.656C73.8201 326.209 74.2634 325.847 74.9442 325.569L87.9037 320.27C88.5844 319.991 89.1565 319.939 89.62 320.111C90.0836 320.284 90.4178 320.621 90.6227 321.122C90.8185 321.601 90.8096 322.065 90.5962 322.515C90.3828 322.965 89.9394 323.327 89.2662 323.602Z"/>
<path d="M83.7565 311.153L73.8024 317.254L85.5098 313.59C86.1576 313.387 86.6888 313.379 87.1032 313.567C87.5177 313.755 87.7997 314.088 87.9494 314.566C88.0942 315.029 88.0525 315.457 87.8241 315.85C87.5958 316.243 87.1539 316.543 86.4983 316.748L73.0787 320.948C72.3383 321.18 71.7786 321.143 71.3995 320.839C71.0205 320.534 70.7284 320.054 70.5232 319.398L70.19 318.334C69.9897 317.694 69.9021 317.211 69.9272 316.886C69.9524 316.56 70.0936 316.281 70.351 316.048C70.6083 315.815 71.0486 315.504 71.6717 315.114L80.19 309.742L70.1292 310.186C69.395 310.221 68.8558 310.216 68.5115 310.171C68.1673 310.126 67.8921 309.978 67.6858 309.725C67.4796 309.472 67.2763 309.025 67.076 308.385L66.7429 307.321C66.5377 306.665 66.5039 306.104 66.6416 305.638C66.7792 305.171 67.2183 304.822 67.9587 304.59L81.3782 300.39C82.0261 300.187 82.5572 300.18 82.9717 300.367C83.3861 300.555 83.6694 300.892 83.8215 301.378C83.9639 301.833 83.919 302.258 83.6868 302.652C83.4546 303.047 83.0146 303.345 82.3668 303.548L70.6593 307.213L82.3153 306.549C83.0727 306.507 83.6328 306.49 83.9955 306.5C84.3583 306.509 84.7217 306.622 85.0858 306.838C85.4499 307.054 85.7152 307.428 85.8818 307.961C86.0073 308.362 86.0268 308.728 85.9401 309.06C85.8535 309.392 85.6994 309.677 85.4777 309.916C85.2561 310.155 84.9952 310.37 84.6952 310.561C84.3952 310.752 84.0823 310.95 83.7565 311.153Z"/>
<path d="M65.4141 288.264L66.9827 296.22L71.2643 295.376L69.8199 288.05C69.7136 287.511 69.7552 287.085 69.9447 286.772C70.1341 286.458 70.4271 286.263 70.8235 286.184C71.2199 286.106 71.5688 286.173 71.8702 286.386C72.1715 286.598 72.3761 286.978 72.484 287.525L73.9283 294.851L78.8877 293.873L77.2652 285.643C77.1558 285.088 77.2022 284.645 77.4044 284.312C77.6065 283.98 77.9217 283.772 78.3499 283.687C78.7622 283.606 79.1249 283.681 79.4381 283.911C79.7513 284.142 79.9626 284.535 80.072 285.09L81.9642 294.688C82.1158 295.457 82.0544 296.043 81.7798 296.448C81.5053 296.852 80.9875 297.129 80.2264 297.279L67.1201 299.863C66.6127 299.963 66.1836 299.969 65.8328 299.882C65.4819 299.795 65.2015 299.605 64.9916 299.313C64.7816 299.02 64.6273 298.625 64.5289 298.125L62.6906 288.801C62.5796 288.238 62.622 287.795 62.8179 287.472C63.0137 287.15 63.3138 286.948 63.7181 286.869C64.1304 286.787 64.4884 286.859 64.7921 287.083C65.0958 287.307 65.3031 287.701 65.4141 288.264Z"/>
<path d="M75.6626 269.032L64.4902 272.42L76.7436 271.832C77.4217 271.799 77.9375 271.926 78.291 272.213C78.6446 272.499 78.8334 272.893 78.8574 273.393C78.8806 273.877 78.7321 274.281 78.4119 274.604C78.0916 274.927 77.5884 275.105 76.9023 275.137L62.8569 275.812C62.0819 275.849 61.5496 275.672 61.2598 275.282C60.97 274.891 60.8087 274.353 60.7757 273.666L60.7223 272.552C60.6901 271.882 60.7273 271.393 60.8338 271.085C60.9404 270.776 61.1476 270.542 61.4554 270.381C61.7633 270.221 62.2679 270.031 62.9693 269.811L72.5683 266.765L62.7217 264.653C62.0025 264.501 61.482 264.361 61.1602 264.23C60.8384 264.1 60.6097 263.887 60.4741 263.59C60.3385 263.293 60.2546 262.809 60.2224 262.139L60.1689 261.026C60.136 260.339 60.2451 259.788 60.4961 259.371C60.7471 258.955 61.2601 258.728 62.035 258.691L76.0804 258.017C76.7585 257.984 77.2743 258.111 77.6279 258.397C77.9814 258.684 78.1704 259.081 78.1948 259.59C78.2177 260.066 78.067 260.466 77.7427 260.789C77.4183 261.112 76.9172 261.29 76.2391 261.322L63.9857 261.91L75.4313 264.213C76.1747 264.363 76.7208 264.489 77.0695 264.589C77.4182 264.69 77.7413 264.891 78.039 265.192C78.3366 265.493 78.4988 265.922 78.5255 266.479C78.5457 266.899 78.4719 267.259 78.3042 267.558C78.1366 267.857 77.9153 268.094 77.6406 268.269C77.3658 268.444 77.0591 268.587 76.7205 268.696C76.3819 268.805 76.0293 268.917 75.6626 269.032Z"/>
<path d="M76.654 243.369L74.3733 244.072L73.9062 251.281L76.1255 252.276C76.9912 252.664 77.5717 252.985 77.867 253.239C78.1623 253.493 78.2928 253.886 78.2583 254.418C78.229 254.87 78.0378 255.258 77.6847 255.584C77.3316 255.909 76.9454 256.058 76.526 256.031C76.2841 256.015 76.0367 255.959 75.7839 255.861C75.531 255.764 75.1808 255.608 74.7331 255.392L63.511 250.11C63.1887 249.959 62.8016 249.779 62.3496 249.567C61.8977 249.356 61.5252 249.137 61.232 248.912C60.9389 248.686 60.7084 248.4 60.5406 248.053C60.3728 247.706 60.3048 247.286 60.3367 246.795C60.369 246.295 60.4908 245.883 60.702 245.561C60.9132 245.239 61.1747 244.984 61.4864 244.798C61.7981 244.612 62.1299 244.459 62.4818 244.34C62.8337 244.221 63.303 244.071 63.8896 243.891L75.6333 239.999C76.5277 239.693 77.1726 239.552 77.5677 239.578C77.979 239.604 78.3449 239.8 78.6654 240.165C78.986 240.53 79.1306 240.954 79.0992 241.438C79.0809 241.721 79.0149 241.959 78.901 242.154C78.7871 242.349 78.6391 242.51 78.4568 242.636C78.2745 242.762 77.9989 242.892 77.6298 243.026C77.2607 243.16 76.9355 243.274 76.654 243.369ZM71.2698 250.163L71.613 244.865L64.1214 247.064L71.2698 250.163Z"/>
<path d="M64.3274 230.225L75.8302 225.197L65.4154 223.389C64.7386 223.272 64.2562 223.038 63.9683 222.689C63.6803 222.34 63.5792 221.918 63.6648 221.424C63.7533 220.915 63.9923 220.542 64.3818 220.306C64.7713 220.07 65.3045 220.011 65.9813 220.129L79.7522 222.518C81.2889 222.785 81.9467 223.555 81.7256 224.829C81.6703 225.148 81.5748 225.427 81.439 225.666C81.3032 225.904 81.1165 226.118 80.8787 226.307C80.641 226.495 80.3721 226.662 80.0722 226.806C79.7723 226.951 79.4665 227.095 79.1546 227.238L67.8003 232.12L78.0598 233.901C78.7286 234.017 79.2073 234.26 79.4958 234.63C79.7843 235 79.8864 235.427 79.8021 235.913C79.715 236.415 79.472 236.787 79.0732 237.029C78.6743 237.272 78.1444 237.336 77.4835 237.221L63.9754 234.876C63.4021 234.777 62.9633 234.635 62.659 234.451C62.3269 234.238 62.0778 233.936 61.9117 233.546C61.7456 233.157 61.6978 232.759 61.7682 232.353C61.8235 232.034 61.9226 231.77 62.0655 231.561C62.2084 231.353 62.3823 231.178 62.5872 231.037C62.792 230.896 63.0494 230.76 63.3591 230.629C63.6689 230.499 63.9917 230.364 64.3274 230.225Z"/>
<path d="M83.6659 208.407L81.2883 208.612L79.3095 215.561L81.2689 217.001C82.0331 217.563 82.5327 217.999 82.7677 218.31C83.0028 218.621 83.0473 219.032 82.9012 219.545C82.7772 219.981 82.5083 220.32 82.0945 220.563C81.6806 220.807 81.2716 220.871 80.8675 220.756C80.6343 220.69 80.4044 220.582 80.1779 220.434C79.9513 220.285 79.6419 220.058 79.2498 219.753L69.396 212.221C69.1127 212.006 68.7726 211.747 68.3754 211.445C67.9783 211.143 67.6603 210.85 67.4214 210.568C67.1825 210.286 67.0177 209.957 66.9269 209.583C66.8361 209.208 66.8582 208.784 66.9932 208.31C67.1305 207.828 67.3363 207.452 67.6108 207.181C67.8853 206.911 68.1946 206.717 68.5386 206.601C68.8826 206.485 69.2392 206.405 69.6082 206.363C69.9773 206.322 70.4676 206.274 71.0792 206.222L83.3798 204.897C84.3188 204.786 84.9787 204.785 85.3596 204.894C85.756 205.007 86.0723 205.275 86.3085 205.7C86.5448 206.124 86.5965 206.57 86.4637 207.036C86.3862 207.308 86.2713 207.527 86.1188 207.694C85.9663 207.86 85.7877 207.986 85.5829 208.071C85.3782 208.155 85.0813 208.224 84.6923 208.277C84.3033 208.33 83.9611 208.373 83.6659 208.407ZM76.9686 213.911L78.4228 208.804L70.6357 209.372L76.9686 213.911Z"/>
<path d="M86.616 186.085L89.7704 187.371C90.1895 187.542 90.5076 187.719 90.7248 187.904C90.9419 188.088 91.1065 188.332 91.2186 188.635C91.3307 188.938 91.4102 189.3 91.4569 189.721C91.5901 190.935 91.5926 192.054 91.4644 193.075C91.3362 194.096 91.051 195.149 90.6087 196.234C90.0933 197.499 89.429 198.572 88.6159 199.454C87.8028 200.335 86.8763 200.992 85.8365 201.423C84.7967 201.855 83.6692 202.052 82.4538 202.015C81.2385 201.978 79.9798 201.694 78.6776 201.163C77.3979 200.641 76.3045 199.973 75.3973 199.158C74.4902 198.344 73.8172 197.415 73.3783 196.372C72.9393 195.329 72.74 194.196 72.7802 192.973C72.8204 191.751 73.115 190.466 73.664 189.119C74.1154 188.011 74.6628 187.091 75.3061 186.358C75.9494 185.626 76.6038 185.085 77.2694 184.737C77.935 184.388 78.5734 184.182 79.1846 184.117C79.7958 184.052 80.296 184.098 80.6851 184.257C81.1042 184.428 81.3983 184.729 81.5673 185.16C81.7363 185.591 81.7324 186.023 81.5555 186.457C81.4579 186.697 81.308 186.904 81.1058 187.079C80.9035 187.254 80.6709 187.375 80.4078 187.443C79.5965 187.592 78.9682 187.742 78.523 187.892C78.0778 188.042 77.6446 188.313 77.2234 188.704C76.8021 189.095 76.439 189.665 76.134 190.413C75.8199 191.184 75.6721 191.927 75.6907 192.641C75.7093 193.356 75.8835 194.031 76.2133 194.667C76.5431 195.303 77.0281 195.885 77.6685 196.412C78.3089 196.939 79.0743 197.384 79.9649 197.747C81.8957 198.534 83.5619 198.696 84.9636 198.233C86.3653 197.771 87.3894 196.746 88.036 195.159C88.3502 194.389 88.5442 193.623 88.6182 192.864C88.6922 192.104 88.6839 191.3 88.5934 190.452L85.9217 189.363L84.8694 191.945C84.6163 192.566 84.3313 192.997 84.0146 193.239C83.6979 193.481 83.315 193.51 82.866 193.327C82.4993 193.178 82.2503 192.921 82.1191 192.558C81.9879 192.195 82.0154 191.785 82.2014 191.328L83.7432 187.545C83.9323 187.081 84.1336 186.705 84.3471 186.417C84.5605 186.129 84.8499 185.943 85.2151 185.861C85.5803 185.779 86.0473 185.853 86.616 186.085Z"/>
<path d="M86.963 168.868L83.1188 176.009L86.9613 178.077L90.5009 171.502C90.7614 171.019 91.0644 170.716 91.4097 170.594C91.7551 170.473 92.1057 170.508 92.4614 170.699C92.8172 170.891 93.044 171.164 93.1417 171.52C93.2394 171.875 93.1561 172.299 92.8918 172.79L89.3522 179.365L93.8031 181.761L97.7794 174.375C98.0476 173.876 98.3653 173.563 98.7325 173.435C99.0998 173.307 99.4755 173.347 99.8598 173.553C100.23 173.753 100.462 174.041 100.558 174.418C100.653 174.795 100.567 175.233 100.298 175.731L95.6612 184.344C95.2896 185.034 94.8695 185.448 94.4007 185.586C93.9319 185.724 93.3559 185.609 92.6728 185.241L80.9105 178.909C80.4551 178.664 80.1197 178.396 79.9043 178.106C79.6889 177.815 79.593 177.49 79.6165 177.131C79.64 176.772 79.7724 176.369 80.0137 175.92L84.5187 167.552C84.7907 167.047 85.1049 166.732 85.4612 166.607C85.8175 166.482 86.1771 166.518 86.54 166.713C86.91 166.912 87.141 167.195 87.233 167.561C87.325 167.927 87.235 168.363 86.963 168.868Z"/>
<path d="M98.7688 163.945L98.0622 164.989L102.791 168.189C103.413 168.61 103.779 169.058 103.888 169.531C103.996 170.005 103.901 170.463 103.602 170.904C103.281 171.38 102.878 171.643 102.393 171.696C101.909 171.749 101.369 171.574 100.773 171.171L89.4486 163.507C88.8061 163.072 88.4383 162.613 88.3453 162.131C88.2523 161.648 88.4232 161.086 88.858 160.443L92.1394 155.594C92.5924 154.925 93.0081 154.372 93.3865 153.935C93.765 153.499 94.1703 153.148 94.6025 152.885C95.1091 152.554 95.6632 152.334 96.2646 152.224C96.8661 152.114 97.4684 152.129 98.0715 152.268C98.6746 152.408 99.2438 152.659 99.7792 153.022C100.877 153.764 101.544 154.667 101.781 155.73C102.018 156.793 101.848 158.047 101.271 159.491C101.91 159.152 102.667 158.928 103.542 158.817C104.417 158.707 105.291 158.672 106.166 158.713C107.041 158.753 107.8 158.837 108.441 158.964C109.082 159.09 109.497 159.217 109.684 159.344C109.878 159.475 110.029 159.667 110.135 159.92C110.242 160.173 110.279 160.444 110.244 160.733C110.21 161.022 110.097 161.307 109.907 161.588C109.681 161.923 109.412 162.15 109.1 162.272C108.789 162.393 108.458 162.454 108.106 162.455C107.754 162.456 107.248 162.438 106.59 162.402L103.793 162.252C102.774 162.186 101.959 162.193 101.349 162.273C100.739 162.353 100.246 162.519 99.8696 162.772C99.4935 163.025 99.1266 163.416 98.7688 163.945ZM93.7396 158.053L91.878 160.804L95.9239 163.542L97.731 160.871C98.2157 160.155 98.5614 159.511 98.7682 158.939C98.975 158.366 99.0167 157.85 98.8933 157.391C98.7698 156.932 98.4471 156.526 97.925 156.172C97.5168 155.896 97.0868 155.756 96.6352 155.753C96.1836 155.75 95.7562 155.881 95.3532 156.145C94.9704 156.393 94.4325 157.029 93.7396 158.053Z"/>
</g>
<path d="M392.181 85.1308C274.272 55.3638 274.272 55.3638 156.363 25.5968C138.247 157.995 138.247 157.995 120.131 290.394C176.55 306.52 176.55 306.52 232.97 322.646C193.113 408.999 193.113 408.999 153.256 495.352C302.764 379.742 302.764 379.742 452.271 264.131C355.071 237.443 355.071 237.443 257.871 210.756C325.026 147.943 325.026 147.943 392.181 85.1308Z" fill="#0c0b0a" fill-rule="nonzero" opacity="1" stroke="#e5ae00" stroke-linecap="butt" stroke-linejoin="round" stroke-width="12.3427"/>
<path d="M419.375 70.5399C301.466 40.7729 301.466 40.7729 183.558 11.0058C165.441 143.404 165.441 143.404 147.325 275.803C203.745 291.929 203.745 291.929 260.164 308.055C220.307 394.408 216.184 386.07 176.327 472.423C325.835 356.812 329.958 365.151 479.466 249.54C382.265 222.852 382.265 222.852 285.065 196.165C352.22 133.352 352.22 133.352 419.375 70.5399Z" fill="#e5ae00" fill-rule="nonzero" opacity="1" stroke="#e5ae00" stroke-linecap="butt" stroke-linejoin="round" stroke-width="12.3427"/>
</g>
</svg>
